<svg xmlns="http://www.w3.org/2000/svg" viewBox="0 0 512 512"><circle cx="119" cy="256" r="72.7" fill="#fce682"/><circle cx="95" cy="232" r="29" fill="#fff"/><path fill="#fce682" d="M0 251h30v10H0zM52.576 315.395l7.07 7.071-21.214 21.212-7.07-7.071zM199.547 168.326l7.071 7.071-21.215 21.212-7.07-7.071zM114 137h10v30h-10zM38.394 168.374l21.213 21.214-7.071 7.07-21.213-21.213z"/><path fill="#fdcf72" d="M170.7 235.5v1c-.8 38.8-32.4 70.5-71.2 71.2h-1c-9.9.1-12.2 14-2.9 17.2 8.3 2.8 17.3 4.2 26.6 3.8 37.4-1.6 67.7-32 69.3-69.3.4-9.4-.9-18.3-3.8-26.6-3.1-9.5-17-7.2-17 2.7z"/><path fill="#b0add6" d="M338 370.9V330c0-41.2-33.5-74.6-74.7-74.6-23.1 0-43.8 10.4-57.5 26.9-9.3-3.4-19.4-5.3-29.9-5.3-42.8 0-78.4 30.6-85.9 71.2-.5 0-1-.2-1.5-.2C42.4 348 5 385.9 5 432h394c0-33.8-27-61.1-61-61.1zM445.6 139h-1.9c-7.5-33.7-37.7-59-73.8-59-25.5 0-48 12.6-61.7 31.9-2.9-.4-5.8-.6-8.8-.6-33.9 0-61.4 27.5-61.4 61.4V200h269v.2c0-33.9-27.5-61.2-61.4-61.2z"/><path fill="#c6c2e1" d="M238 172.6V200h175.5c0-15.1-12.3-27.4-27.4-27.4h-25.3c0-30.9-22.9-56.5-52.6-60.7-1.1-.2-4.5-.5-5-.5-.4 0-3.8-.1-3.8-.1-33.9-.1-61.4 27.4-61.4 61.3z"/><path fill="#8b8aba" d="M338.1 370.9c34 0 60.9 27.1 60.9 61.1h-61v-35l.1-26.1z"/><path fill="#c6c2e1" d="M5 432zM263.2 364.4c0-48.2-39.1-87.3-87.3-87.3h-4.3c-40.8 2-74.3 31.9-81.5 71.1-.5 0-1-.2-1.5-.2C42.4 348 5 385.9 5 432H300.4v-30.4c-.1-20.5-16.7-37.2-37.2-37.2z"/></svg>